<svg width="400" height="164" viewBox="0 0 400 164" fill="none" xmlns="http://www.w3.org/2000/svg">
<g clip-path="url(#clip0_261_41)">
<rect width="400" height="164" fill="#F1DFB7"/>
<path fill-rule="evenodd" clip-rule="evenodd" d="M0 0H400V164H0V0ZM368.118 110.298C367.869 108.109 366.84 106.413 365.03 105.211C363.221 103.993 360.944 103.384 358.199 103.384C356.234 103.384 354.534 103.693 353.099 104.309C351.664 104.91 350.549 105.743 349.753 106.806C348.974 107.855 348.584 109.049 348.584 110.391C348.584 111.516 348.849 112.487 349.379 113.304C349.925 114.121 350.635 114.807 351.508 115.362C352.397 115.902 353.349 116.356 354.362 116.726C355.376 117.081 356.351 117.374 357.287 117.605L361.966 118.807C363.494 119.177 365.062 119.678 366.668 120.31C368.274 120.942 369.764 121.775 371.136 122.808C372.509 123.84 373.616 125.12 374.458 126.646C375.316 128.172 375.745 129.999 375.745 132.126C375.745 134.808 375.043 137.19 373.64 139.271C372.252 141.352 370.232 142.994 367.58 144.196C364.945 145.399 361.755 146 358.012 146C354.425 146 351.321 145.437 348.701 144.312C346.081 143.187 344.03 141.591 342.548 139.526C341.066 137.444 340.247 134.978 340.091 132.126H347.344C347.484 133.837 348.046 135.263 349.028 136.404C350.026 137.529 351.298 138.369 352.842 138.924C354.401 139.464 356.109 139.734 357.965 139.734C360.008 139.734 361.825 139.418 363.416 138.786C365.023 138.138 366.286 137.244 367.206 136.103C368.126 134.947 368.586 133.598 368.586 132.057C368.586 130.654 368.181 129.506 367.37 128.611C366.574 127.717 365.49 126.977 364.118 126.392C362.761 125.806 361.225 125.289 359.509 124.842L353.848 123.316C350.011 122.283 346.969 120.765 344.724 118.761C342.493 116.757 341.378 114.106 341.378 110.807C341.378 108.078 342.127 105.697 343.624 103.662C345.121 101.627 347.149 100.047 349.707 98.9216C352.265 97.7808 355.15 97.2104 358.363 97.2104C361.607 97.2104 364.469 97.7731 366.949 98.8984C369.444 100.024 371.409 101.573 372.844 103.546C374.279 105.504 375.028 107.755 375.09 110.298H368.118ZM334.462 102.537V98.1494H328.487V102.605C328.487 104.388 328.145 106.018 327.46 107.496C326.791 108.973 325.997 110.367 325.079 111.678L328.534 114.1C329.732 113.155 330.774 112.028 331.661 110.718C332.548 109.408 333.233 108.044 333.715 106.627C334.213 105.195 334.462 103.832 334.462 102.537ZM295.055 145.062V98.1494H302.086V138.969H323.203V145.062H295.055ZM255.648 98.1494V145.062H285.672V138.969H262.807V124.607H283.842V118.536H262.807V104.243H285.394V98.1494H255.648ZM245.327 98.1494V145.062H237.821V98.1494H245.327ZM228.438 145.062V98.1494H221.143V132.601H220.691L195.85 98.1494H189.031V136.44C181.8 138.6 175.967 139.2 171.518 138.664C166.65 138.078 163.631 136.18 161.86 133.593C160.021 130.906 159.045 126.771 159.764 120.854C160.481 114.952 162.851 107.646 167.215 99.1179L170.861 91.9944L162.88 92.5799C141.27 94.1654 127.86 91.7283 120.031 89.0893C116.118 87.7703 113.584 86.396 112.1 85.4319C111.356 84.9491 110.871 84.5657 110.604 84.3384C110.47 84.2246 110.39 84.1494 110.36 84.1197L110.345 84.1053L110.35 84.11L110.371 84.1323L110.388 84.1505L110.398 84.1614L110.403 84.1673C110.406 84.1703 110.409 84.1735 107.088 87.21C103.767 90.2465 103.77 90.2497 103.773 90.253L103.779 90.2598L103.792 90.2742L103.823 90.3066C103.844 90.3297 103.869 90.3558 103.898 90.3848C103.954 90.4429 104.024 90.5125 104.107 90.5928C104.273 90.7534 104.494 90.9564 104.773 91.1944C105.333 91.6706 106.129 92.2852 107.198 92.9795C109.338 94.3699 112.557 96.0674 117.156 97.6178C124.825 100.203 136.288 102.365 152.955 102.053C146.413 109.468 139.055 117.45 132.716 124.217C128.385 128.841 124.544 132.883 121.787 135.768C120.408 137.211 119.3 138.364 118.538 139.156C118.157 139.552 117.862 139.857 117.663 140.063L117.437 140.297L117.38 140.356L117.366 140.371L117.363 140.374L117.362 140.375C117.362 140.375 117.362 140.375 120.595 143.506C123.827 146.636 123.827 146.636 123.828 146.636L123.829 146.635L123.833 146.63L123.848 146.615L123.907 146.554L124.137 146.315C124.34 146.106 124.638 145.797 125.022 145.397C125.791 144.599 126.906 143.438 128.293 141.986C131.067 139.084 134.929 135.02 139.284 130.37C142.997 126.406 147.079 122.005 151.157 117.528C151.028 118.286 150.919 119.033 150.829 119.768C149.947 127.03 150.958 133.6 154.433 138.676C157.976 143.852 163.598 146.775 170.441 147.6C176.484 148.328 183.609 147.453 191.612 145.062H196.398V110.656H196.851L221.668 145.062H228.438ZM286.122 28.751V75.664H316.146V69.5708H293.28V55.2082H314.316V49.138H293.28V34.8442H315.868V28.751H286.122ZM243.9 75.664V28.751H261.057C264.786 28.751 267.88 29.3771 270.34 30.6293C272.816 31.8816 274.665 33.6148 275.887 35.8292C277.109 38.0282 277.72 40.5709 277.72 43.4571C277.72 46.3281 277.101 48.8554 275.864 51.0392C274.641 53.2077 272.793 54.8952 270.317 56.1016C269.866 56.3227 269.394 56.5235 268.901 56.7041L279.554 75.664H271.281L261.501 57.908C261.452 57.9087 261.404 57.9093 261.354 57.9097C261.248 57.9107 261.141 57.9112 261.033 57.9112H251.162V75.664H243.9ZM251.162 51.8181H260.375C262.726 51.8181 264.637 51.4897 266.11 50.8331C267.598 50.1764 268.687 49.222 269.377 47.9697C270.066 46.7175 270.411 45.2133 270.411 43.4571C270.411 41.6856 270.058 40.1509 269.353 38.8528C268.664 37.5548 267.575 36.5622 266.086 35.875C264.614 35.1725 262.678 34.8213 260.281 34.8213H251.162V51.8181ZM202.617 28.751V75.664H209.688V57.9112H219.299C219.452 57.9112 219.604 57.9102 219.755 57.908L229.277 75.664H237.332L226.96 56.7041C227.44 56.5235 227.9 56.3227 228.339 56.1016C230.749 54.8952 232.549 53.2077 233.739 51.0392C234.945 48.8554 235.547 46.3281 235.547 43.4571C235.547 40.5709 234.952 38.0282 233.762 35.8292C232.572 33.6148 230.772 31.8816 228.362 30.6293C225.966 29.3771 222.953 28.751 219.322 28.751H202.617ZM218.659 51.8181H209.688V34.8213H218.567C220.901 34.8213 222.785 35.1725 224.22 35.875C225.669 36.5622 226.729 37.5548 227.4 38.8528C228.087 40.1509 228.43 41.6856 228.43 43.4571C228.43 45.2133 228.095 46.7175 227.423 47.9697C226.752 49.222 225.692 50.1764 224.242 50.8331C222.808 51.4897 220.947 51.8181 218.659 51.8181ZM191.357 28.751V75.664H184.789V28.751H191.357ZM173.53 28.751H166.38V59.1349C166.38 61.2647 165.911 63.157 164.972 64.8118C164.05 66.4666 162.712 67.769 160.959 68.7189C159.221 69.6536 157.153 70.1209 154.754 70.1209C152.37 70.1209 150.309 69.6536 148.572 68.7189C146.834 67.769 145.488 66.4666 144.535 64.8118C143.597 63.157 143.128 61.2647 143.128 59.1349V28.751H136V59.7095C136 63.0038 136.777 65.9226 138.33 68.4661C139.883 70.9943 142.067 72.9862 144.881 74.4418C147.695 75.8821 150.986 76.6022 154.754 76.6022C158.537 76.6022 161.835 75.8821 164.65 74.4418C167.464 72.9862 169.647 70.9943 171.201 68.4661C172.754 65.9226 173.53 63.0038 173.53 59.7095V28.751ZM119.892 43.465C119.445 42.0582 118.843 40.7983 118.086 39.6852C117.345 38.5567 116.458 37.5982 115.423 36.8098C114.389 36.0059 113.208 35.3953 111.881 34.9779C110.569 34.5605 109.126 34.3518 107.551 34.3518C104.881 34.3518 102.473 35.0397 100.327 36.4156C98.1815 37.7915 96.4836 39.8089 95.2333 42.4679C93.9984 45.1114 93.381 48.3502 93.381 52.1841C93.381 56.0334 94.0061 59.2876 95.2564 61.9466C96.3472 64.2663 97.7904 66.0977 99.586 67.4408C100 67.3081 100.419 67.1713 100.841 67.0302L101.347 68.5462C103.287 69.5572 105.447 70.0627 107.829 70.0627C110.407 70.0627 112.653 69.5371 114.567 68.4859C116.496 67.4346 117.986 65.9506 119.035 64.0336C120.053 62.1875 120.585 60.0309 120.63 57.5639H108.917V51.6507H127.556V57.0537C127.556 61.0422 126.707 64.5051 125.009 67.4424C123.327 70.3642 120.996 72.6212 118.017 74.2135C115.053 75.8058 111.657 76.602 107.829 76.602C105.9 76.602 104.078 76.4021 102.361 76.0024C92.0325 79.3133 83.1494 80.5182 75.904 79.4946C68.1737 78.4025 62.1942 74.7256 58.7924 68.4852C55.5125 62.4686 55.0167 54.7683 56.5134 46.2538C56.7991 44.6287 57.1602 42.9565 57.5957 41.2396C52.1903 47.191 46.7191 53.0892 41.7878 58.3488C36.5582 63.9264 31.9213 68.8012 28.5914 72.282C26.9263 74.0225 25.5876 75.4149 24.6645 76.3729C24.203 76.8519 23.8453 77.2223 23.6027 77.4733L23.3264 77.7589L23.2556 77.832L23.2375 77.8507L23.2328 77.8556L23.2316 77.8569C23.2312 77.8572 23.2311 77.8574 20 74.7252C16.7689 71.5931 16.769 71.593 16.7692 71.5928L16.7702 71.5918L16.7743 71.5876L16.7913 71.57L16.8599 71.4991L17.1316 71.2182C17.3712 70.9704 17.7256 70.6034 18.1837 70.128C19.1 69.1771 20.4312 67.7925 22.088 66.0605C25.4022 62.5963 30.0177 57.7439 35.2222 52.193C45.6469 41.0745 58.3764 27.2149 67.7486 16.0993L75.194 21.0517C69.8952 31.3953 66.6798 40.4037 65.3775 47.812C64.0646 55.2808 64.7729 60.6526 66.6945 64.1775C68.4941 67.4787 71.7135 69.8132 77.163 70.5831C80.9985 71.1249 85.857 70.8641 91.8025 69.5605C90.7226 68.2749 89.7824 66.8269 88.9817 65.2162C87.1757 61.5678 86.2727 57.2392 86.2727 52.2304C86.2727 48.4429 86.7975 45.0419 87.8472 42.0273C88.8968 39.0128 90.3709 36.4542 92.2696 34.3518C94.1836 32.2339 96.4296 30.6184 99.0074 29.5053C101.601 28.3768 104.433 27.8125 107.505 27.8125C110.067 27.8125 112.452 28.1913 114.659 28.9488C116.882 29.7063 118.858 30.7807 120.587 32.172C122.331 33.5634 123.774 35.2175 124.917 37.1344C126.059 39.0359 126.831 41.1461 127.232 43.465H119.892Z" fill="#1C69D3"/>
</g>
<defs>
<clipPath id="clip0_261_41">
<rect width="400" height="164" fill="white"/>
</clipPath>
</defs>
</svg>
