<svg width="150" height="150" viewBox="0 0 150 150" fill="none" xmlns="http://www.w3.org/2000/svg">
<rect width="150" height="150" fill="#1C69D3"/>
<path fill-rule="evenodd" clip-rule="evenodd" d="M19.4367 30.8179L23.7295 35.5394C23.7679 35.5758 23.8461 35.6481 23.9675 35.7519C24.2679 36.0088 24.8358 36.4613 25.721 37.0396C27.4876 38.1935 30.5485 39.8679 35.3133 41.4831C44.8466 44.7148 61.2944 47.7393 87.9145 45.7752L99.4167 44.9265L94.1858 55.2056C83.3564 76.4859 84.8494 90.1309 90.4575 96.7193C96.0545 103.295 108.966 106.596 129.929 99.5486L136.09 97.4772L140.232 109.799L134.071 111.871C111.543 119.445 91.4782 117.975 80.5582 105.146C74.6283 98.1792 72.3458 88.9741 73.3472 78.3881L40.502 114.381L36.1206 119.183L26.5179 110.42L30.8993 105.618L73.0811 59.3938C53.8036 59.5159 40.3287 56.9099 31.1397 53.7949C25.3796 51.8423 21.3272 49.6971 18.6118 47.9234C17.256 47.0379 16.2407 46.2496 15.5181 45.6316C15.1571 45.3228 14.8699 45.0572 14.6505 44.8441C14.5408 44.7376 14.4482 44.6442 14.3718 44.5652C14.3336 44.5257 14.2994 44.4898 14.2693 44.4576L14.227 44.4122L14.2081 44.3916L14.1992 44.3819C14.1949 44.3772 14.1906 44.3725 19 39.9999L14.1906 44.3725L9.81799 39.5632L19.4367 30.8179Z" fill="#F1DFB7"/>
</svg>
