<svg width="215" height="150" viewBox="0 0 215 150" fill="none" xmlns="http://www.w3.org/2000/svg">
<rect width="215" height="150" fill="#1C69D3"/>
<path fill-rule="evenodd" clip-rule="evenodd" d="M178.44 114.119V127.353C155.636 131.576 136.626 127.551 125.452 114.51C116.619 104.202 113.992 89.7902 117.247 72.8721L67.6213 126.895L63.224 131.682L53.6502 122.888L58.0475 118.101L118.791 51.9744C90.0106 52.6792 70.3903 49.0092 57.4042 44.6361C49.7715 42.0657 44.4533 39.2595 40.9398 36.9797C39.185 35.841 37.8875 34.8383 36.9823 34.0692C36.53 33.6849 36.1764 33.3596 35.9133 33.1057C35.7818 32.9788 35.673 32.8698 35.5858 32.7803C35.5423 32.7356 35.5041 32.6957 35.4713 32.6609L35.4259 32.6125L35.4062 32.5912L35.3971 32.5813C35.3927 32.5765 35.3885 32.5719 40.1834 28.1834L35.3885 32.5719L31 27.7769L40.5899 19L44.9194 23.7306L44.9407 23.7512C45.0079 23.8161 45.1581 23.957 45.3994 24.162C45.8817 24.5717 46.7315 25.2408 48.0161 26.0744C50.5816 27.739 54.911 30.0791 61.5531 32.3159C74.8415 36.7909 97.476 40.8804 133.825 38.2161L145.357 37.3709L140.085 47.6623C125.279 76.5657 126.798 96.1018 135.323 106.052C142.505 114.433 156.945 118.685 178.44 114.119Z" fill="#F1DFB7"/>
</svg>
