<svg width="400" height="76" viewBox="0 0 400 76" fill="none" xmlns="http://www.w3.org/2000/svg">
<g clip-path="url(#clip0_259_2)">
<rect width="400" height="76" fill="#1C69D3"/>
<rect width="400" height="76.2667" fill="#1C69D3"/>
<path d="M384.948 32.0673C384.788 30.6612 384.127 29.572 382.965 28.7997C381.802 28.0174 380.34 27.6263 378.577 27.6263C377.314 27.6263 376.222 27.8244 375.301 28.2204C374.379 28.6066 373.663 29.1413 373.152 29.8245C372.651 30.4978 372.4 31.2652 372.4 32.1267C372.4 32.8495 372.571 33.4733 372.911 33.9981C373.262 34.5229 373.718 34.9636 374.279 35.32C374.85 35.6666 375.461 35.9587 376.112 36.1963C376.763 36.4241 377.389 36.6122 377.99 36.7607L380.996 37.5331C381.978 37.7707 382.985 38.0925 384.016 38.4985C385.048 38.9045 386.005 39.4392 386.887 40.1026C387.768 40.766 388.48 41.5879 389.021 42.5681C389.572 43.5484 389.847 44.7218 389.847 46.0882C389.847 47.8111 389.396 49.341 388.495 50.6777C387.603 52.0145 386.306 53.069 384.603 53.8413C382.909 54.6137 380.861 54.9998 378.456 54.9998C376.152 54.9998 374.158 54.6384 372.475 53.9156C370.792 53.1928 369.475 52.1679 368.523 50.8411C367.571 49.5043 367.045 47.9201 366.945 46.0882H371.604C371.694 47.1873 372.055 48.1032 372.686 48.836C373.327 49.5588 374.143 50.0985 375.135 50.4549C376.137 50.8015 377.234 50.9748 378.426 50.9748C379.739 50.9748 380.906 50.7718 381.928 50.3658C382.96 49.9499 383.771 49.3756 384.362 48.6429C384.953 47.9003 385.249 47.0338 385.249 46.0437C385.249 45.1426 384.988 44.4049 384.467 43.8306C383.956 43.2563 383.26 42.781 382.378 42.4048C381.507 42.0285 380.52 41.6968 379.418 41.4096L375.781 40.4293C373.317 39.7659 371.363 38.7906 369.921 37.5034C368.488 36.2161 367.772 34.513 367.772 32.394C367.772 30.6414 368.253 29.1116 369.214 27.8045C370.176 26.4975 371.479 25.4826 373.122 24.7597C374.765 24.027 376.618 23.6606 378.682 23.6606C380.765 23.6606 382.604 24.0221 384.197 24.7449C385.8 25.4677 387.062 26.4629 387.984 27.7303C388.905 28.9878 389.386 30.4335 389.426 32.0673H384.948Z" fill="#F1DFB7" stroke="#F1DFB7"/>
<path d="M363.329 24.2637V27.0819C363.329 27.9137 363.169 28.7895 362.85 29.7094C362.54 30.6194 362.1 31.4952 361.53 32.3368C360.961 33.1783 360.291 33.9025 359.521 34.5092L357.303 32.9533C357.892 32.1117 358.402 31.2163 358.832 30.2671C359.272 29.3179 359.491 28.2709 359.491 27.126V24.2637H363.329Z" fill="#F1DFB7" stroke="#F1DFB7"/>
<path d="M338.017 54.3975V24.2637H342.533V50.4837H356.097V54.3975H338.017Z" fill="#F1DFB7" stroke="#F1DFB7"/>
<path d="M312.704 54.3975V24.2637H331.812V28.1775H317.303V37.3589H330.815V41.2581H317.303V50.4837H331.99V54.3975H312.704Z" fill="#F1DFB7" stroke="#F1DFB7"/>
<path d="M306.075 24.2637V54.3975H301.253V24.2637H306.075Z" fill="#F1DFB7" stroke="#F1DFB7"/>
<path d="M295.227 24.2637V54.3975H290.878L274.937 32.2974H274.646V54.3975H269.914V24.2637H274.294L290.25 46.3932H290.541V24.2637H295.227Z" fill="#F1DFB7" stroke="#F1DFB7"/>
<path d="M217.279 17.2368C217.279 17.2368 224.971 25.6494 253.328 23.5689M253.328 23.5689C243.218 35.5709 225.955 53.3974 225.955 53.3974M253.328 23.5689C241.72 46.2512 249.881 58.6332 272.474 51.0799" stroke="#F1DFB7" stroke-width="7"/>
<path d="M181.779 53.3975V53.8975H182.279H201.564H202.064V53.3975V49.4837V48.9837H201.564H187.377V40.7581H200.389H200.889V40.2581V36.3589V35.8589H200.389H187.377V27.6775H201.386H201.886V27.1775V23.2637V22.7637H201.386H182.279H181.779V23.2637V53.3975Z" fill="#F1DFB7" stroke="#F1DFB7"/>
<path d="M154.658 53.8975V53.3975V23.2637V22.7637H155.158H166.179C168.626 22.7637 170.698 23.1741 172.368 24.0243C174.038 24.8692 175.304 26.0496 176.142 27.5677C176.974 29.0648 177.382 30.7838 177.382 32.7099C177.382 34.6277 176.968 36.3382 176.125 37.8262C175.285 39.3164 174.017 40.4668 172.346 41.2811M154.658 53.8975L171.686 41.0334C171.836 40.9695 171.983 40.9023 172.127 40.8319L172.346 41.2814C172.346 41.2813 172.346 41.2812 172.346 41.2811M154.658 53.8975H155.158H159.823H160.323V53.3975V42.4943M154.658 53.8975L160.323 42.4943M172.346 41.2811C172.211 41.3475 172.073 41.411 171.933 41.4718L178.496 53.1526L178.914 53.8975H178.06H172.746H172.45L172.308 53.6387L166.17 42.4943C166.168 42.4943 166.166 42.4943 166.164 42.4943H160.323M172.346 41.2811L160.323 42.4943M165.741 37.5805H160.323V27.6628H165.68C167.178 27.6628 168.339 27.8832 169.194 28.291L169.194 28.291L169.2 28.2936C170.069 28.6948 170.681 29.2609 171.066 29.987L171.066 29.987L171.068 29.9911C171.474 30.7384 171.687 31.6389 171.687 32.7099C171.687 33.7727 171.479 34.652 171.085 35.3674C170.702 36.0627 170.093 36.6064 169.223 36.9903L169.221 36.9911C168.361 37.3744 167.21 37.5805 165.741 37.5805Z" fill="#F1DFB7" stroke="#F1DFB7"/>
<path d="M128.141 53.3975V53.8975H128.641H133.183H133.683V53.3975V42.4943H139.351L145.325 53.6338L145.466 53.8975H145.765H150.94H151.783L151.378 53.1575L144.984 41.4696C145.121 41.4088 145.255 41.3452 145.387 41.2788C147.017 40.4628 148.252 39.3108 149.07 37.8213C149.89 36.3342 150.293 34.6254 150.293 32.7099C150.293 30.7861 149.896 29.0689 149.087 27.5729C148.271 26.0553 147.038 24.8734 145.408 24.0268C143.778 23.1747 141.757 22.7637 139.371 22.7637H128.641H128.141V23.2637V53.3975ZM138.945 37.5805H133.683V27.6628H138.886C140.342 27.6628 141.468 27.8829 142.297 28.2887L142.297 28.2887L142.303 28.2915C143.145 28.6908 143.74 29.2551 144.116 29.9821L144.116 29.9821L144.118 29.9862C144.514 30.7345 144.721 31.6369 144.721 32.7099C144.721 33.7747 144.518 34.6558 144.134 35.3723C143.761 36.0683 143.169 36.6102 142.325 36.9923L142.323 36.9932C141.49 37.3747 140.373 37.5805 138.945 37.5805Z" fill="#F1DFB7" stroke="#F1DFB7"/>
<path d="M121.908 23.2637V22.7637H121.408H117.189H116.689V23.2637V53.3975V53.8975H117.189H121.408H121.908V53.3975V23.2637Z" fill="#F1DFB7" stroke="#F1DFB7"/>
<path d="M105.364 22.7637H104.864V23.2637V42.7803C104.864 44.0725 104.58 45.2011 104.025 46.1802L104.024 46.1833C103.48 47.1587 102.692 47.929 101.645 48.4965C100.616 49.0499 99.3721 49.337 97.8965 49.337C96.4317 49.337 95.1934 49.0503 94.164 48.497C93.1265 47.9295 92.3312 47.1579 91.7667 46.1787C91.2123 45.2 90.9288 44.0718 90.9288 42.7803V23.2637V22.7637H90.4288H85.8503H85.3503V23.2637V43.1494C85.3503 45.3474 85.8696 47.3143 86.9201 49.0347L86.9208 49.0358C87.9694 50.7426 89.4424 52.0827 91.3251 53.0566L91.327 53.0576C93.2175 54.0251 95.4123 54.5002 97.8965 54.5002C100.39 54.5002 102.59 54.0252 104.481 53.0576L104.483 53.0566C106.365 52.0827 107.838 50.7426 108.887 49.0358L108.888 49.0347C109.938 47.3143 110.457 45.3474 110.457 43.1494V23.2637V22.7637H109.957H105.364Z" fill="#F1DFB7" stroke="#F1DFB7"/>
<path d="M79.16 28.3917C78.3958 27.1093 77.4293 26.0016 76.2625 25.0707C75.1043 24.1388 73.7834 23.4215 72.3042 22.9174C70.8294 22.4113 69.2424 22.1606 67.5468 22.1606C65.5113 22.1606 63.6235 22.5348 61.8897 23.2892C60.1673 24.0331 58.6663 25.1133 57.3897 26.5258L57.3896 26.5259C56.1199 27.9319 55.1412 29.6354 54.4478 31.6269C53.7521 33.6249 53.4087 35.8665 53.4087 38.3451C53.4087 41.622 53.9995 44.4817 55.2007 46.9082L55.2011 46.9089C56.3997 49.3202 58.0778 51.1958 60.2358 52.5195L60.2367 52.52C62.4072 53.845 64.919 54.4998 67.7551 54.4998C70.2847 54.4998 72.549 53.9733 74.5347 52.9066C76.5303 51.84 78.0959 50.3242 79.2234 48.3665C80.3652 46.3913 80.9265 44.0776 80.9265 41.4433V37.9728V37.4728H80.4265H68.4541H67.9541V37.9728V41.771V42.271H68.4541H75.4566C75.3719 43.5728 75.0544 44.7076 74.5155 45.6854L74.5148 45.6866C73.8869 46.8334 72.9995 47.7178 71.8438 48.3475L71.8423 48.3483C70.6988 48.9763 69.3419 49.2994 67.7551 49.2994C66.0571 49.2994 64.5599 48.8804 63.2481 48.0512C61.9415 47.2252 60.9002 46.0077 60.1317 44.3734C59.368 42.7493 58.9746 40.7362 58.9746 38.3154C58.9746 35.9041 59.3632 33.9007 60.1172 32.2863C60.8865 30.6506 61.919 29.4331 63.2062 28.6076C64.4999 27.778 65.9522 27.3611 67.5766 27.3611C68.5437 27.3611 69.4189 27.4892 70.2062 27.7397L70.2078 27.7402C71.0073 27.9916 71.7119 28.3571 72.3264 28.8347L72.3264 28.8347L72.3301 28.8376C72.9478 29.3084 73.4795 29.8819 73.9256 30.5613L73.9256 30.5614L73.93 30.5679C74.3863 31.2394 74.7529 32.0043 75.0272 32.8664L75.1381 33.2148H75.5037H80.2183H80.8122L80.7109 32.6295C80.4433 31.0832 79.9272 29.669 79.16 28.3917ZM79.16 28.3917C79.1602 28.392 79.1604 28.3922 79.1605 28.3925L78.731 28.6485M79.16 28.3917C79.1599 28.3915 79.1598 28.3912 79.1596 28.391L78.731 28.6485M78.731 28.6485C79.3818 29.7318 79.8453 30.9206 80.1217 32.2148M78.731 28.6485C77.9973 27.4171 77.0702 26.3546 75.9498 25.4609C74.8394 24.5672 73.5702 23.8771 72.1425 23.3905L80.1217 32.2148M80.1217 32.2148H80.2183V32.7148L79.7256 32.8001C79.7207 32.7716 79.7156 32.7432 79.7105 32.7148M80.1217 32.2148L79.7105 32.7148M75.5037 32.7148C75.2161 31.8112 74.8294 31.0019 74.3436 30.2869C73.8677 29.562 73.2976 28.9464 72.6332 28.4399L75.5037 32.7148ZM75.5037 32.7148H79.7105M75.5037 32.7148H79.7105" fill="#F1DFB7" stroke="#F1DFB7"/>
<path d="M11.3395 52.7943C11.3395 52.7943 32.0764 31.4024 44.2199 17C30.2765 44.2188 37.0431 59.657 64.1821 50.5931" stroke="#F1DFB7" stroke-width="7"/>
</g>
<defs>
<clipPath id="clip0_259_2">
<rect width="400" height="76" fill="white"/>
</clipPath>
</defs>
</svg>
