<svg width="173" height="135" viewBox="0 0 173 135" fill="none" xmlns="http://www.w3.org/2000/svg">
<path fill-rule="evenodd" clip-rule="evenodd" d="M173 0H0V135H173V0ZM30.4394 21.8181L34.7362 26.5469C34.7783 26.5872 34.8719 26.6746 35.0216 26.8027C35.3582 27.0908 35.9821 27.5875 36.9467 28.2179C38.8719 29.4762 42.1844 31.2868 47.3216 33.0293C57.5996 36.5155 75.2751 39.7587 103.827 37.6509L115.327 36.8019L110.099 47.0799C98.4785 69.9286 99.9722 84.791 106.167 92.0732C112.349 99.3398 126.426 102.812 148.928 95.2426L155.088 93.1702L159.233 105.492L153.072 107.564C129.004 115.661 107.77 114.02 96.2655 100.497C89.762 92.8519 87.3977 82.6135 88.8011 70.7797L52.6856 110.38L48.3056 115.183L38.7003 106.423L43.0803 101.62L88.967 51.3057C67.7991 51.5404 53.0966 48.7156 43.1458 45.3403C37.0129 43.2601 32.7086 40.9783 29.8345 39.0999C28.3994 38.1619 27.328 37.3292 26.5693 36.6799C26.1901 36.3555 25.8898 36.0775 25.6618 35.8559C25.5479 35.7451 25.452 35.6485 25.3736 35.5673C25.3343 35.5267 25.2994 35.4899 25.2687 35.4572L25.2259 35.4111L25.2068 35.3904L25.1979 35.3806C25.1936 35.3759 25.1894 35.3712 30 31L25.1894 35.3712L20.8181 30.5606L30.4394 21.8181Z" fill="#BE1D1D"/>
</svg>
